REM DIRINDEX 1\2\5,1\2\6,1\2\7,1\2\8,1\3\9,1\3\10,1\3\11,1\4\12,1\4\13,1\4\14,1\4\15,1\4\16
REM DIRNAME cjc034,folder01,folder02,folder03,folder04,folder05,folder06,folder07,folder08,folder09,folder10,folder11,folder12,folder13,folder14,folder15
TITLE ""
FILE "1200_sec04_1421_1429.mp3" MP3
  TRACK 01 AUDIO
    TITLE "0:"
    INDEX 01 00:00:00
  TRACK 02 AUDIO
    TITLE "12:cjc034_09424"
    INDEX 01 00:00:17
  TRACK 03 AUDIO
    TITLE "0:"
    INDEX 01 00:02:16
  TRACK 04 AUDIO
    TITLE "13:cjc034_09425"
    INDEX 01 00:02:49
  TRACK 05 AUDIO
    TITLE "0:"
    INDEX 01 00:05:42
  TRACK 06 AUDIO
    TITLE "14:cjc034_09426"
    INDEX 01 00:06:00
  TRACK 07 AUDIO
    TITLE "0:"
    INDEX 01 00:07:72
  TRACK 08 AUDIO
    TITLE "15:cjc034_09427"
    INDEX 01 00:08:30
  TRACK 09 AUDIO
    TITLE "0:"
    INDEX 01 00:13:12
  TRACK 10 AUDIO
    TITLE "12:cjc034_09428"
    INDEX 01 00:14:47
  TRACK 11 AUDIO
    TITLE "0:"
    INDEX 01 00:16:02
  TRACK 12 AUDIO
    TITLE "13:cjc034_09429"
    INDEX 01 00:16:38
  TRACK 13 AUDIO
    TITLE "0:"
    INDEX 01 00:20:57
  TRACK 14 AUDIO
    TITLE "14:cjc034_09430"
    INDEX 01 00:21:17
  TRACK 15 AUDIO
    TITLE "0:"
    INDEX 01 00:22:48
  TRACK 16 AUDIO
    TITLE "15:cjc034_09431"
    INDEX 01 00:23:10
  TRACK 17 AUDIO
    TITLE "0:"
    INDEX 01 00:26:54
  TRACK 18 AUDIO
    TITLE "12:cjc034_09432"
    INDEX 01 00:28:15
  TRACK 19 AUDIO
    TITLE "0:"
    INDEX 01 00:29:52
  TRACK 20 AUDIO
    TITLE "13:cjc034_09433"
    INDEX 01 00:30:10
  TRACK 21 AUDIO
    TITLE "0:"
    INDEX 01 00:31:35
  TRACK 22 AUDIO
    TITLE "14:cjc034_09434"
    INDEX 01 00:31:67
  TRACK 23 AUDIO
    TITLE "0:"
    INDEX 01 00:33:28
  TRACK 24 AUDIO
    TITLE "15:cjc034_09435"
    INDEX 01 00:33:62
  TRACK 25 AUDIO
    TITLE "0:"
    INDEX 01 00:39:21
  TRACK 26 AUDIO
    TITLE "12:cjc034_09436"
    INDEX 01 00:40:54
  TRACK 27 AUDIO
    TITLE "0:"
    INDEX 01 00:42:49
  TRACK 28 AUDIO
    TITLE "13:cjc034_09437"
    INDEX 01 00:43:07
  TRACK 29 AUDIO
    TITLE "0:"
    INDEX 01 00:44:30
  TRACK 30 AUDIO
    TITLE "14:cjc034_09438"
    INDEX 01 00:44:65
  TRACK 31 AUDIO
    TITLE "0:"
    INDEX 01 00:46:60
  TRACK 32 AUDIO
    TITLE "15:cjc034_09439"
    INDEX 01 00:47:17
  TRACK 33 AUDIO
    TITLE "0:"
    INDEX 01 00:51:52
  TRACK 34 AUDIO
    TITLE "12:cjc034_09440"
    INDEX 01 00:53:08
  TRACK 35 AUDIO
    TITLE "0:"
    INDEX 01 00:54:42
  TRACK 36 AUDIO
    TITLE "13:cjc034_09441"
    INDEX 01 00:55:04
  TRACK 37 AUDIO
    TITLE "0:"
    INDEX 01 00:57:21
  TRACK 38 AUDIO
    TITLE "14:cjc034_09442"
    INDEX 01 00:57:56
  TRACK 39 AUDIO
    TITLE "0:"
    INDEX 01 00:59:18
  TRACK 40 AUDIO
    TITLE "15:cjc034_09443"
    INDEX 01 00:59:53
  TRACK 41 AUDIO
    TITLE "0:"
    INDEX 01 01:03:04
  TRACK 42 AUDIO
    TITLE "12:cjc034_09444"
    INDEX 01 01:04:39
  TRACK 43 AUDIO
    TITLE "0:"
    INDEX 01 01:06:10
  TRACK 44 AUDIO
    TITLE "13:cjc034_09445"
    INDEX 01 01:06:43
  TRACK 45 AUDIO
    TITLE "0:"
    INDEX 01 01:10:51
  TRACK 46 AUDIO
    TITLE "14:cjc034_09446"
    INDEX 01 01:11:09
  TRACK 47 AUDIO
    TITLE "0:"
    INDEX 01 01:12:58
  TRACK 48 AUDIO
    TITLE "15:cjc034_09447"
    INDEX 01 01:13:14
  TRACK 49 AUDIO
    TITLE "0:"
    INDEX 01 01:16:73
  TRACK 50 AUDIO
    TITLE "12:cjc034_09448"
    INDEX 01 01:18:29
  TRACK 51 AUDIO
    TITLE "0:"
    INDEX 01 01:19:58
  TRACK 52 AUDIO
    TITLE "13:cjc034_09449"
    INDEX 01 01:20:16
  TRACK 53 AUDIO
    TITLE "0:"
    INDEX 01 01:23:15
  TRACK 54 AUDIO
    TITLE "14:cjc034_09450"
    INDEX 01 01:23:48
  TRACK 55 AUDIO
    TITLE "0:"
    INDEX 01 01:25:00
  TRACK 56 AUDIO
    TITLE "15:cjc034_09451"
    INDEX 01 01:25:33
  TRACK 57 AUDIO
    TITLE "0:"
    INDEX 01 01:29:70
  TRACK 58 AUDIO
    TITLE "12:cjc034_09452"
    INDEX 01 01:31:43
  TRACK 59 AUDIO
    TITLE "0:"
    INDEX 01 01:33:38
  TRACK 60 AUDIO
    TITLE "13:cjc034_09453"
    INDEX 01 01:33:72
  TRACK 61 AUDIO
    TITLE "0:"
    INDEX 01 01:35:16
  TRACK 62 AUDIO
    TITLE "14:cjc034_09454"
    INDEX 01 01:35:49
  TRACK 63 AUDIO
    TITLE "0:"
    INDEX 01 01:37:46
  TRACK 64 AUDIO
    TITLE "15:cjc034_09455"
    INDEX 01 01:38:02
  TRACK 65 AUDIO
    TITLE "0:"
    INDEX 01 01:45:08
  TRACK 66 AUDIO
    TITLE "12:cjc034_09456"
    INDEX 01 01:46:41
  TRACK 67 AUDIO
    TITLE "0:"
    INDEX 01 01:48:63
  TRACK 68 AUDIO
    TITLE "13:cjc034_09457"
    INDEX 01 01:49:20
  TRACK 69 AUDIO
    TITLE "0:"
    INDEX 01 01:50:45
  TRACK 70 AUDIO
    TITLE "14:cjc034_09458"
    INDEX 01 01:51:05
  TRACK 71 AUDIO
    TITLE "0:"
    INDEX 01 01:53:29
  TRACK 72 AUDIO
    TITLE "15:cjc034_09459"
    INDEX 01 01:53:61
  TRACK 73 AUDIO
    TITLE "0:"
    INDEX 01 01:58:40
